<?xml version="1.0" encoding="utf-8"?>
<!-- Generator: Adobe Illustrator 18.1.1, SVG Export Plug-In . SVG Version: 6.00 Build 0)  -->
<svg version="1.1" id="Layer_1" xmlns="http://www.w3.org/2000/svg" xmlns:xlink="http://www.w3.org/1999/xlink" x="0px" y="0px"
	 width="460px" height="270px" viewBox="0 0 460 270" enable-background="new 0 0 460 270" xml:space="preserve">
<g>
	<g>
		<defs>
			<path id="SVGID_1_" d="M423.9,245.4c0,0-62.8,0.7-83.8,0c-18.3-0.6-73.2,0-73.2,0V93.6h157.1V245.4z"/>
		</defs>
		<clipPath id="SVGID_2_">
			<use xlink:href="#SVGID_1_"  overflow="visible"/>
		</clipPath>
		<g clip-path="url(#SVGID_2_)">
			<g>
				<g>
					
						<path fill="#FFFFFF" stroke="#173055" stroke-width="2" stroke-linecap="round" stroke-linejoin="round" stroke-miterlimit="10" d="
						M345.4,169.3h-17.5v23.3c0,2.6,7.8,4.8,17.5,4.8c9.7,0,17.5-2.1,17.5-4.8v-23.3H345.4z"/>
					<g>
						
							<path fill="#FFFFFF" stroke="#173055" stroke-width="2" stroke-linecap="round" stroke-linejoin="round" stroke-miterlimit="10" d="
							M341,182c1.4,0.3,2.9,0.5,4.4,0.5c1.5,0,3-0.2,4.4-0.5c6.6-2,19.7-21.6,19.7-21.6c1.3-4.4,2.1-9.2,2.1-14.2
							c0-20-11.7-36.3-26.2-36.3s-26.2,16.3-26.2,36.3c0,5,0.7,9.9,2.1,14.2C321.2,160.3,334.4,180,341,182z"/>
						<g>
							
								<path fill="#FFFFFF" stroke="#173055" stroke-width="2" stroke-linecap="round" stroke-linejoin="round" stroke-miterlimit="10" d="
								M321.4,143.9c0.7,3.6,0,6.8-1.6,7.2c-1.6,0.4-3.4-2.2-4.1-5.8c-0.7-3.6,0-6.8,1.6-7.2C318.9,137.8,320.7,140.3,321.4,143.9z"
								/>
							
								<path fill="#FFFFFF" stroke="#173055" stroke-width="2" stroke-linecap="round" stroke-linejoin="round" stroke-miterlimit="10" d="
								M369.3,143.9c-0.7,3.6,0,6.8,1.6,7.2c1.6,0.4,3.4-2.2,4.1-5.8c0.7-3.6,0-6.8-1.6-7.2C371.9,137.8,370,140.3,369.3,143.9z"/>
						</g>
						
							<path fill="#173055" stroke="#173055" stroke-width="2" stroke-linecap="round" stroke-linejoin="round" stroke-miterlimit="10" d="
							M345.4,107.6c-15.4,0-27.8,13.2-27.8,29.5c0,0.3,0,0.6,0,0.9c0.2,0,1.9,0.4,2.1,4.6c0.1,2.5,0.1,3.3,0,3.5l2.3,1.3
							c0,0,0.3-16,11.5-16.5h11.9h11.9c11.2,0.5,11.5,16.5,11.5,16.5l2.3-1.3c0-0.2,0-1,0-3.5c0.1-4.2,1.9-4.6,2.1-4.6
							c0-0.3,0-0.6,0-0.9C373.2,120.9,360.8,107.6,345.4,107.6z"/>
					</g>
					
						<polygon fill="#FFFFFF" stroke="#173055" stroke-width="2" stroke-linecap="round" stroke-linejoin="round" stroke-miterlimit="10" points="
						324.4,182.5 324.4,255.5 366.4,255.5 366.4,182.5 345.4,190.7 					"/>
					<g>
						
							<polygon fill="#1B87E7" stroke="#173055" stroke-width="2" stroke-linecap="round" stroke-linejoin="round" stroke-miterlimit="10" points="
							348.2,197.7 351.8,193.5 345.4,190.7 339,193.5 342.6,197.7 340.8,201.1 339.8,228.6 345.4,248.4 351,228.6 349.9,201.1 
													"/>
					</g>
					
						<polygon fill="#FFFFFF" stroke="#173055" stroke-width="2" stroke-linecap="round" stroke-linejoin="round" stroke-miterlimit="10" points="
						345.4,190.7 324.4,182.5 317.5,187.3 326.4,203.7 					"/>
					
						<polygon fill="#FFFFFF" stroke="#173055" stroke-width="2" stroke-linecap="round" stroke-linejoin="round" stroke-miterlimit="10" points="
						345.4,190.7 366.4,182.5 373.2,187.3 364.4,202.8 					"/>
					
						<ellipse fill="#FFFFFF" stroke="#173055" stroke-width="2" stroke-linecap="round" stroke-linejoin="round" stroke-miterlimit="10" cx="401.5" cy="313.6" rx="8.2" ry="13.7"/>
					
						<ellipse fill="#FFFFFF" stroke="#173055" stroke-width="2" stroke-linecap="round" stroke-linejoin="round" stroke-miterlimit="10" cx="289.3" cy="313.6" rx="8.2" ry="13.7"/>
					
						<path fill="#1B87E7" stroke="#173055" stroke-width="2" stroke-linecap="round" stroke-linejoin="round" stroke-miterlimit="10" d="
						M407,211.5c-0.7-17.6-11.5-20.8-13.7-21.2v-0.1l-20.1-2.9l-27.8,59l-27.8-59l-20.1,2.9v0.1c-2.2,0.5-13.1,3.6-13.7,21.2
						c-0.7,19.6-2.7,98.4-2.7,98.4h16.8l2.4-66.1l4.8,65.9v3.7h80.4l0.2-3.9l0,0l4.8-65.8l2.4,66.2h16.8
						C409.7,309.9,407.7,231.1,407,211.5z"/>
				</g>
			</g>
			
				<polygon fill="#1B87E7" stroke="#173055" stroke-width="2" stroke-linecap="round" stroke-linejoin="round" stroke-miterlimit="10" points="
				317.5,187.3 338,216.8 345.4,246.3 325.2,223.8 326.9,214.7 315.7,207.7 			"/>
			
				<polygon fill="#1B87E7" stroke="#173055" stroke-width="2" stroke-linecap="round" stroke-linejoin="round" stroke-miterlimit="10" points="
				373.2,187.3 352.8,216.8 345.4,246.3 365.5,223.8 363.9,214.7 375.1,207.7 			"/>
			<g>
				
					<rect x="359.2" y="276.1" fill="#FFFFFF" stroke="#173055" stroke-width="2" stroke-linecap="round" stroke-linejoin="round" stroke-miterlimit="10" width="21.6" height="4.1"/>
				
					<rect x="310" y="276.1" fill="#FFFFFF" stroke="#173055" stroke-width="2" stroke-linecap="round" stroke-linejoin="round" stroke-miterlimit="10" width="21.6" height="4.1"/>
			</g>
			<g>
				
					<circle fill="#FFFFFF" stroke="#173055" stroke-width="2" stroke-linecap="round" stroke-linejoin="round" stroke-miterlimit="10" cx="347.9" cy="259.8" r="2"/>
				
					<circle fill="#FFFFFF" stroke="#173055" stroke-width="2" stroke-linecap="round" stroke-linejoin="round" stroke-miterlimit="10" cx="347.9" cy="278.2" r="2"/>
				
					<circle fill="#FFFFFF" stroke="#173055" stroke-width="2" stroke-linecap="round" stroke-linejoin="round" stroke-miterlimit="10" cx="347.9" cy="296.6" r="2"/>
			</g>
		</g>
	</g>
</g>
<line fill="none" stroke="#173055" stroke-width="2" stroke-linecap="round" stroke-linejoin="round" stroke-miterlimit="10" x1="13.7" y1="245.4" x2="447.4" y2="245.4"/>
<g>
	<defs>
		<polygon id="SVGID_3_" points="190.2,244.4 52.1,245.4 43.7,86.6 192,86.6 		"/>
	</defs>
	<clipPath id="SVGID_4_">
		<use xlink:href="#SVGID_3_"  overflow="visible"/>
	</clipPath>
	<g clip-path="url(#SVGID_4_)">
		<g>
			<g>
				
					<path fill="#FFFFFF" stroke="#173055" stroke-width="2" stroke-linecap="round" stroke-linejoin="round" stroke-miterlimit="10" d="
					M117.9,158h-16.5v22c0,2.5,7.4,4.5,16.5,4.5c9.1,0,16.5-2,16.5-4.5v-22H117.9z"/>
				
					<path fill="#FFFFFF" stroke="#173055" stroke-width="2" stroke-linecap="round" stroke-linejoin="round" stroke-miterlimit="10" d="
					M144.4,128.6c-0.7-0.2-1.5,0.3-2.2,1.2c-2.2-15.9-12.2-27.9-24.3-27.9c-12.1,0-22.2,12-24.3,27.9c-0.7-0.9-1.5-1.4-2.2-1.2
					c-1.5,0.4-2.2,3.4-1.5,6.8c0.6,3.1,2.1,5.4,3.5,5.5c0.3,3.1,0.9,6,1.7,8.8c0-0.1,12.5,18.5,18.6,20.4c1.4,0.3,2.7,0.5,4.2,0.5
					c1.4,0,2.8-0.2,4.2-0.5c6.2-1.9,18.6-20.4,18.6-20.4c0.8-2.8,1.4-5.7,1.7-8.8c1.4-0.1,2.9-2.4,3.5-5.5
					C146.6,132,145.9,129,144.4,128.6z"/>
				
					<polygon fill="#FFFFFF" stroke="#173055" stroke-width="2" stroke-linecap="round" stroke-linejoin="round" stroke-miterlimit="10" points="
					98,170.5 98,239.4 137.7,239.4 137.7,170.5 117.9,184.6 				"/>
				
					<polygon fill="#FFFFFF" stroke="#173055" stroke-width="2" stroke-linecap="round" stroke-linejoin="round" stroke-miterlimit="10" points="
					117.9,184.6 98,170.5 91.6,175 99.1,191 				"/>
				
					<polygon fill="#FFFFFF" stroke="#173055" stroke-width="2" stroke-linecap="round" stroke-linejoin="round" stroke-miterlimit="10" points="
					117.9,184.6 137.7,170.5 144.1,175 137.7,190.8 				"/>
				
					<ellipse fill="#B3EEFB" stroke="#173055" stroke-width="2" stroke-linecap="round" stroke-linejoin="round" stroke-miterlimit="10" cx="170.8" cy="294.2" rx="7.7" ry="12.9"/>
				
					<ellipse fill="#B3EEFB" stroke="#173055" stroke-width="2" stroke-linecap="round" stroke-linejoin="round" stroke-miterlimit="10" cx="64.9" cy="294.2" rx="7.7" ry="12.9"/>
				
					<path fill="#173055" stroke="#173055" stroke-width="2" stroke-linecap="round" stroke-linejoin="round" stroke-miterlimit="10" d="
					M176,197.8c-0.6-16.6-10.9-19.6-13-20v-0.1l-18.9-2.8l-26.3,55.7L91.6,175l-18.9,2.8v0.1c-2,0.4-12.3,3.4-13,20
					c-0.7,18.5-2.5,92.9-2.5,92.9H73l2.3-62.4l4.5,62.2v3.5h76l0.1-3.7l0,0l4.5-62.1C160.4,228.2,176.7,216.3,176,197.8z"/>
			</g>
		</g>
		<g>
			
				<rect x="130.9" y="258.9" fill="#B3EEFB" stroke="#173055" stroke-width="2" stroke-linecap="round" stroke-linejoin="round" stroke-miterlimit="10" width="20.4" height="3.9"/>
			
				<rect x="84.5" y="258.9" fill="#B3EEFB" stroke="#173055" stroke-width="2" stroke-linecap="round" stroke-linejoin="round" stroke-miterlimit="10" width="20.4" height="3.9"/>
		</g>
		<g>
			<g>
				<g>
					<g>
						
							<path fill="#B3EEFB" stroke="#173055" stroke-width="2" stroke-linecap="round" stroke-linejoin="round" stroke-miterlimit="10" d="
							M102.4,95.8C92.6,101.4,86,111.9,86,124h32.5v-13.2V91.6v-2.7C112.1,88.9,106.4,91.5,102.4,95.8z"/>
						<g>
							<defs>
								<path id="SVGID_5_" d="M102.4,95.8C92.6,101.4,86,111.9,86,124h32.5v-13.2V91.6v-2.7C112.1,88.9,106.4,91.5,102.4,95.8z"/>
							</defs>
							<use xlink:href="#SVGID_5_"  overflow="visible" fill="#B3EEFB"/>
							<clipPath id="SVGID_6_">
								<use xlink:href="#SVGID_5_"  overflow="visible"/>
							</clipPath>
							
								<path clip-path="url(#SVGID_6_)" fill="#B3EEFB" stroke="#173055" stroke-width="2" stroke-linecap="round" stroke-linejoin="round" stroke-miterlimit="10" d="
								M77.6,88.9c16,0,29.7,9.7,35.6,23.5C109.2,98.3,96.3,88,80.9,88c-3.4,0-6.7,0.5-9.9,1.5C73.2,89.1,75.3,88.9,77.6,88.9z"/>
							
								<use xlink:href="#SVGID_5_"  overflow="visible" fill="none" stroke="#173055" stroke-width="2" stroke-linecap="round" stroke-linejoin="round" stroke-miterlimit="10"/>
						</g>
					</g>
					<g>
						
							<path fill="#B3EEFB" stroke="#173055" stroke-width="2" stroke-linecap="round" stroke-linejoin="round" stroke-miterlimit="10" d="
							M134.5,95.8c9.8,5.6,16.4,16.1,16.4,28.1h-32.5v-13.2V91.6v-2.7C124.8,88.9,130.5,91.5,134.5,95.8z"/>
						<g>
							<defs>
								<path id="SVGID_7_" d="M134.5,95.8c9.8,5.6,16.4,16.1,16.4,28.1h-32.5v-13.2V91.6v-2.7C124.8,88.9,130.5,91.5,134.5,95.8z"
									/>
							</defs>
							<use xlink:href="#SVGID_7_"  overflow="visible" fill="#B3EEFB"/>
							<clipPath id="SVGID_8_">
								<use xlink:href="#SVGID_7_"  overflow="visible"/>
							</clipPath>
							
								<use xlink:href="#SVGID_7_"  overflow="visible" fill="none" stroke="#173055" stroke-width="2" stroke-linecap="round" stroke-linejoin="round" stroke-miterlimit="10"/>
						</g>
					</g>
				</g>
				<g>
					<g>
						
							<path fill="#1B87E7" stroke="#173055" stroke-width="2" stroke-linecap="round" stroke-linejoin="round" stroke-miterlimit="10" d="
							M102.4,95.8C92.6,101.4,86,111.9,86,124h32.5v-13.2V91.6v-2.7C112.1,88.9,106.4,91.5,102.4,95.8z"/>
						<g>
							<defs>
								<path id="SVGID_9_" d="M102.4,95.8C92.6,101.4,86,111.9,86,124h32.5v-13.2V91.6v-2.7C112.1,88.9,106.4,91.5,102.4,95.8z"/>
							</defs>
							<use xlink:href="#SVGID_9_"  overflow="visible" fill="#1B87E7"/>
							<clipPath id="SVGID_10_">
								<use xlink:href="#SVGID_9_"  overflow="visible"/>
							</clipPath>
							
								<path clip-path="url(#SVGID_10_)" fill="#1B87E7" stroke="#173055" stroke-width="2" stroke-linecap="round" stroke-linejoin="round" stroke-miterlimit="10" d="
								M113.2,112.4C109.2,98.3,96.3,88,80.9,88c-3.4,0-6.7,0.5-9.9,1.5c2.1-0.4,4.3-0.6,6.6-0.6"/>
							
								<use xlink:href="#SVGID_9_"  overflow="visible" fill="none" stroke="#173055" stroke-width="2" stroke-linecap="round" stroke-linejoin="round" stroke-miterlimit="10"/>
						</g>
					</g>
					<g>
						
							<path fill="#1B87E7" stroke="#173055" stroke-width="2" stroke-linecap="round" stroke-linejoin="round" stroke-miterlimit="10" d="
							M134.5,95.8c9.8,5.6,16.4,16.1,16.4,28.1h-32.5v-13.2V91.6v-2.7C124.8,88.9,130.5,91.5,134.5,95.8z"/>
						<g>
							<defs>
								<path id="SVGID_11_" d="M134.5,95.8c9.8,5.6,16.4,16.1,16.4,28.1h-32.5v-13.2V91.6v-2.7C124.8,88.9,130.5,91.5,134.5,95.8z"
									/>
							</defs>
							<use xlink:href="#SVGID_11_"  overflow="visible" fill="#1B87E7"/>
							<clipPath id="SVGID_12_">
								<use xlink:href="#SVGID_11_"  overflow="visible"/>
							</clipPath>
							
								<use xlink:href="#SVGID_11_"  overflow="visible" fill="none" stroke="#173055" stroke-width="2" stroke-linecap="round" stroke-linejoin="round" stroke-miterlimit="10"/>
						</g>
					</g>
				</g>
			</g>
			<g>
				<g>
					
						<rect x="84.8" y="122.6" fill="#1B87E7" stroke="#173055" stroke-width="2" stroke-linecap="round" stroke-linejoin="round" stroke-miterlimit="10" width="66.1" height="2.5"/>
					
						<rect x="84.8" y="125" fill="#1B87E7" stroke="#173055" stroke-width="2" stroke-linecap="round" stroke-linejoin="round" stroke-miterlimit="10" width="66.1" height="2.5"/>
				</g>
				<g>
					
						<rect x="84.8" y="122.6" fill="#1B87E7" stroke="#173055" stroke-width="2" stroke-linecap="round" stroke-linejoin="round" stroke-miterlimit="10" width="66.1" height="2.5"/>
					
						<rect x="84.8" y="125" fill="#1B87E7" stroke="#173055" stroke-width="2" stroke-linecap="round" stroke-linejoin="round" stroke-miterlimit="10" width="66.1" height="2.5"/>
				</g>
			</g>
		</g>
	</g>
</g>
<circle fill="#FFFFFF" stroke="#173055" stroke-width="2" stroke-linecap="round" stroke-linejoin="round" stroke-miterlimit="10" cx="187.6" cy="110.6" r="9.4"/>
<circle fill="#FFFFFF" stroke="#173055" stroke-width="2" stroke-linecap="round" stroke-linejoin="round" stroke-miterlimit="10" cx="170.7" cy="124.7" r="5.7"/>
<circle fill="#FFFFFF" stroke="#173055" stroke-width="2" stroke-linecap="round" stroke-linejoin="round" stroke-miterlimit="10" cx="284.4" cy="110.6" r="9.4"/>
<circle fill="#FFFFFF" stroke="#173055" stroke-width="2" stroke-linecap="round" stroke-linejoin="round" stroke-miterlimit="10" cx="300.5" cy="125.7" r="5.7"/>
<path fill="#B3EEFB" stroke="#173055" stroke-width="2" stroke-linecap="round" stroke-linejoin="round" stroke-miterlimit="10" d="
	M116.7,220.3l6.8-0.3c0.9,0,1.7,0.7,1.8,1.6l0.4,8.9l0.4,8.9c0,0.9-0.7,1.7-1.6,1.8l-6.8,0.3c-0.9,0-1.7-0.7-1.8-1.6l-0.4-8.9
	l-0.4-8.9C115,221.2,115.7,220.4,116.7,220.3z"/>
<path fill="#173055" stroke="#173055" stroke-width="2" stroke-linecap="round" stroke-linejoin="round" stroke-miterlimit="10" d="
	M60.5,190.8L45,228.6c-1.9,3.8-1.7,8.3,0.5,11.9c2.2,3.4,6,5.5,10,5.5c0.2,0,0.3,0,0.5,0l63.9-2.7l-1-23.8l-48.5,3.8l7.4-25.5"/>
<g>
	
		<path fill="#FFFFFF" stroke="#173055" stroke-width="2" stroke-linecap="round" stroke-linejoin="round" stroke-miterlimit="10" d="
		M273.7,17h-69.5c-21.6,0-39.1,17.5-39.1,39.1s17.5,39.1,39.1,39.1c1.8,0,67.7,0,69.5,0c21.6,0,39.1-17.5,39.1-39.1
		S295.3,17,273.7,17z"/>
</g>
<g>
	<g>
		
			<rect x="222.8" y="31.5" fill="#1B87E7" stroke="#173055" stroke-width="2" stroke-linecap="round" stroke-linejoin="round" stroke-miterlimit="10" width="25.9" height="10.7"/>
		
			<polygon fill="#1B87E7" stroke="#173055" stroke-width="2" stroke-linecap="round" stroke-linejoin="round" stroke-miterlimit="10" points="
			219.5,24.7 248.7,31.5 222.8,31.5 		"/>
		<g>
			
				<path fill="#173055" stroke="#173055" stroke-width="2" stroke-linecap="round" stroke-linejoin="round" stroke-miterlimit="10" d="
				M257.8,71.5c-0.4,0-0.8-0.2-1.1-0.5c-0.5-0.6-0.4-1.5,0.2-2c12.8-10.8,13.5-18.6,11.8-23.3c-1.9-5.2-7.3-8-9.5-8h-15.4
				c-0.8,0-1.4-0.6-1.4-1.4c0-0.8,0.6-1.4,1.4-1.4h15.4c3.6,0,9.9,3.7,12.1,9.9c2,5.5,1.4,14.5-12.6,26.4
				C258.4,71.4,258.1,71.5,257.8,71.5z"/>
		</g>
		
			<path fill="#FFFFFF" stroke="#173055" stroke-width="2" stroke-linecap="round" stroke-linejoin="round" stroke-miterlimit="10" d="
			M248.7,42.2h-25.6c-7,4.3-11.7,12-11.7,20.9c0,8.7,4.5,16.3,11.4,20.7v3.8h25.9v-3.7c7-4.3,11.7-12,11.7-20.8
			C260.4,54.2,255.7,46.5,248.7,42.2z"/>
		
			<path fill="#173055" stroke="#173055" stroke-width="2" stroke-linecap="round" stroke-linejoin="round" stroke-miterlimit="10" d="
			M255.4,60.6c-5.1,1.9-11.9,1.5-22.4-1.5c-6.7-1.9-12.2-1.3-16.4,0.2c-0.2,1.2-0.3,2.4-0.3,3.6c0,11,8.8,19.9,19.6,19.9
			c10.8,0,19.6-8.9,19.6-19.9C255.5,62.1,255.5,61.4,255.4,60.6z"/>
	</g>
</g>
<g>
	<g>
		<path fill="#B3EEFB" d="M203.1,250.9c-1.8,5.2-7.5,8-12.7,6.2l-51-17.8c-5.2-1.8-8-7.5-6.2-12.7l25.1-72c1.8-5.2,7.5-8,12.7-6.2
			l51,17.8c5.2,1.8,8,7.5,6.2,12.7L203.1,250.9z"/>
		<path fill="none" stroke="#173055" stroke-width="2" stroke-linecap="round" stroke-linejoin="round" stroke-miterlimit="10" d="
			M203.1,250.9c-1.8,5.2-7.5,8-12.7,6.2l-51-17.8c-5.2-1.8-8-7.5-6.2-12.7l25.1-72c1.8-5.2,7.5-8,12.7-6.2l51,17.8
			c5.2,1.8,8,7.5,6.2,12.7L203.1,250.9z"/>
	</g>
	
		<circle fill="none" stroke="#173055" stroke-width="2" stroke-linecap="round" stroke-linejoin="round" stroke-miterlimit="10" cx="166.8" cy="242.5" r="2.6"/>
	
		<rect x="148.9" y="163.3" transform="matrix(0.9444 0.3288 -0.3288 0.9444 76.2281 -48.4434)" fill="#FFFFFF" stroke="#173055" stroke-width="2" stroke-linecap="round" stroke-linejoin="round" stroke-miterlimit="10" width="64.8" height="75.8"/>
	
		<line fill="#FFFFFF" stroke="#173055" stroke-width="2" stroke-linecap="round" stroke-linejoin="round" stroke-miterlimit="10" x1="184.8" y1="176.1" x2="206.5" y2="183.6"/>
	
		<line fill="#FFFFFF" stroke="#173055" stroke-width="2" stroke-linecap="round" stroke-linejoin="round" stroke-miterlimit="10" x1="183.6" y1="179.7" x2="210.3" y2="189"/>
	
		<line fill="#FFFFFF" stroke="#173055" stroke-width="2" stroke-linecap="round" stroke-linejoin="round" stroke-miterlimit="10" x1="171" y1="191.9" x2="202.8" y2="203"/>
	
		<line fill="#FFFFFF" stroke="#173055" stroke-width="2" stroke-linecap="round" stroke-linejoin="round" stroke-miterlimit="10" x1="167.7" y1="201.3" x2="186" y2="207.7"/>
	
		<line fill="#FFFFFF" stroke="#173055" stroke-width="2" stroke-linecap="round" stroke-linejoin="round" stroke-miterlimit="10" x1="164.3" y1="211.1" x2="189.7" y2="219.9"/>
	
		<line fill="#FFFFFF" stroke="#173055" stroke-width="2" stroke-linecap="round" stroke-linejoin="round" stroke-miterlimit="10" x1="182.4" y1="183.1" x2="206.9" y2="191.6"/>
	
		<circle fill="#1B87E7" stroke="#173055" stroke-width="2" stroke-linecap="round" stroke-linejoin="round" stroke-miterlimit="10" cx="172" cy="175" r="7.1"/>
	<path fill="none" stroke="#173055" stroke-width="2" stroke-linecap="round" stroke-linejoin="round" stroke-miterlimit="10" d="
		M171,172.6c0.3-0.9,1.3-1.4,2.2-1.1c0.9,0.3,1.4,1.3,1.1,2.2c-0.2,0.5-0.5,0.8-0.9,1c0,0-1.5,0.6-1.8,1.3l-0.2,0.5"/>
	
		<line fill="#FFFFFF" stroke="#173055" stroke-width="2" stroke-linecap="round" stroke-linejoin="round" stroke-miterlimit="10" x1="170.8" y1="178.6" x2="170.8" y2="178.6"/>
	
		<circle fill="#B3EEFB" stroke="#173055" stroke-width="2" stroke-linecap="round" stroke-linejoin="round" stroke-miterlimit="10" cx="164.3" cy="189.6" r="2.8"/>
	
		<circle fill="#B3EEFB" stroke="#173055" stroke-width="2" stroke-linecap="round" stroke-linejoin="round" stroke-miterlimit="10" cx="161" cy="199" r="2.8"/>
	
		<circle fill="#B3EEFB" stroke="#173055" stroke-width="2" stroke-linecap="round" stroke-linejoin="round" stroke-miterlimit="10" cx="157.6" cy="208.7" r="2.8"/>
	
		<circle fill="#173055" stroke="#173055" stroke-width="2" stroke-linecap="round" stroke-linejoin="round" stroke-miterlimit="10" cx="157.6" cy="208.7" r="0.5"/>
	
		<path fill="#1B87E7" stroke="#173055" stroke-width="2" stroke-linecap="round" stroke-linejoin="round" stroke-miterlimit="10" d="
		M191.8,236.9l-10.2-3.6c-1.6-0.5-2.4-2.3-1.8-3.8l0.1-0.4c0.5-1.6,2.3-2.4,3.8-1.8l10.2,3.6c1.6,0.5,2.4,2.3,1.8,3.8l-0.1,0.4
		C195,236.6,193.3,237.4,191.8,236.9z"/>
	
		<polyline fill="#1B87E7" stroke="#173055" stroke-width="2" stroke-linecap="round" stroke-linejoin="round" stroke-miterlimit="10" points="
		188.8,231.1 189.7,232.8 188,233.5 	"/>
	
		<line fill="#1B87E7" stroke="#173055" stroke-width="2" stroke-linecap="round" stroke-linejoin="round" stroke-miterlimit="10" x1="188.7" y1="232.4" x2="186.2" y2="231.5"/>
</g>
<g>
	<g>
		<g>
			
				<path fill="#FFFFFF" stroke="#173055" stroke-width="2" stroke-linecap="round" stroke-linejoin="round" stroke-miterlimit="10" d="
				M146.9,237.9c-0.1-1.4-1.3-2.6-2.7-2.6c0,0,0,0,0,0l2.6-0.1c1.5-0.1,2.7-1.4,2.6-2.9c-0.1-1.5-1.4-2.7-2.9-2.6l2.7-0.1
				c1.5-0.1,2.7-1.4,2.6-2.9c-0.1-1.5-1.4-2.7-2.9-2.6l11-0.5c1.5-0.1,2.7-1.4,2.6-2.9c-0.1-1.5-1.4-2.7-2.9-2.6l-1.8,0.1l-14.7,0.7
				l-2,0.1c-0.3,0-0.6-0.3-0.8-0.6c-0.1-0.3,0-0.7,0.3-0.9c2.5-2.1,5.1-2.1,5-5.1c0-0.7-0.4-1.3-1-1.6c-0.6-0.3-1.3-0.3-1.9,0.1
				l-18.1,9.5c-0.4,0.3-0.7,0.7-0.6,1.2c0.1,2.4,0.5,10.9,0.8,16c0.1,2.3,2,4,4.3,3.9c7.3-0.4,15.1-0.7,15.1-0.7
				C145.8,240.7,146.9,239.5,146.9,237.9z"/>
		</g>
	</g>
</g>
<g>
	
		<path fill="#FFFFFF" stroke="#173055" stroke-width="2" stroke-linecap="round" stroke-linejoin="round" stroke-miterlimit="10" d="
		M224.6,200.6c-0.1,0-0.3-0.1-0.4-0.1l-8.5-2.8c-1.7-0.6-2.6-2.4-2-4.1c0.6-1.7,2.4-2.6,4.1-2l8.5,2.8c1.7,0.6,2.6,2.4,2,4.1
		C227.7,200,226.2,200.9,224.6,200.6z"/>
</g>
<g>
	
		<path fill="#FFFFFF" stroke="#173055" stroke-width="2" stroke-linecap="round" stroke-linejoin="round" stroke-miterlimit="10" d="
		M222.8,207.5l-8.7-1.1c-1.8-0.2-3-1.8-2.8-3.6c0.2-1.8,1.8-3,3.6-2.8l8.7,1.1c1.8,0.2,3,1.8,2.8,3.6c-0.2,1.6-1.6,2.8-3.2,2.8
		C223.1,207.5,222.9,207.5,222.8,207.5z"/>
</g>
<g>
	
		<path fill="#FFFFFF" stroke="#173055" stroke-width="2" stroke-linecap="round" stroke-linejoin="round" stroke-miterlimit="10" d="
		M212.2,212.7c-1.7-0.3-2.9-2-2.6-3.8c0.3-1.7,2-2.9,3.8-2.6l8.7,1.6c1.7,0.3,2.9,2,2.6,3.8c-0.3,1.5-1.6,2.6-3.2,2.6
		c-0.2,0-0.4,0-0.6-0.1L212.2,212.7z"/>
</g>
<g>
	
		<path fill="#FFFFFF" stroke="#173055" stroke-width="2" stroke-linecap="round" stroke-linejoin="round" stroke-miterlimit="10" d="
		M208,215.3c0.3-1.6,1.7-2.6,3.3-2.4l7.8,1.3c1.6,0.3,2.6,1.7,2.4,3.3c-0.2,1.4-1.5,2.4-2.8,2.4c-0.2,0-0.3,0-0.5,0l-7.8-1.3
		C208.8,218.3,207.7,216.9,208,215.3z"/>
</g>
<circle fill="#FFFFFF" stroke="#173055" stroke-width="2" stroke-linecap="round" stroke-linejoin="round" stroke-miterlimit="10" cx="107.7" cy="136.9" r="0.9"/>
<circle fill="#FFFFFF" stroke="#173055" stroke-width="2" stroke-linecap="round" stroke-linejoin="round" stroke-miterlimit="10" cx="129.9" cy="136.9" r="0.9"/>
<polyline fill="#FFFFFF" stroke="#173055" stroke-width="2" stroke-linecap="round" stroke-linejoin="round" stroke-miterlimit="10" points="
	120.6,142.9 121.8,149 117.1,149 "/>
<path fill="#FFFFFF" stroke="#173055" stroke-width="2" stroke-linecap="round" stroke-linejoin="round" stroke-miterlimit="10" d="
	M110.4,156.2c0,0,4.6,3.2,12.2,2.2"/>
<circle fill="#FFFFFF" stroke="#173055" stroke-width="2" stroke-linecap="round" stroke-linejoin="round" stroke-miterlimit="10" cx="353.9" cy="145.9" r="0.9"/>
<circle fill="#FFFFFF" stroke="#173055" stroke-width="2" stroke-linecap="round" stroke-linejoin="round" stroke-miterlimit="10" cx="334.7" cy="145.9" r="0.9"/>
<path fill="#FFFFFF" stroke="#173055" stroke-width="2" stroke-linecap="round" stroke-linejoin="round" stroke-miterlimit="10" d="
	M353.2,166.6c0,0-4.6,3.2-12.2,2.2"/>
<path fill="none" stroke="#173055" stroke-width="2" stroke-linecap="round" stroke-linejoin="round" stroke-miterlimit="10" d="
	M123.8,112.4c1.8-6.6,5.6-12.3,10.7-16.6"/>
<ellipse fill="#173055" stroke="#173055" stroke-linecap="round" stroke-linejoin="round" stroke-miterlimit="10" cx="350" cy="111.6" rx="9.5" ry="7.4"/>
<ellipse fill="#173055" stroke="#173055" stroke-linecap="round" stroke-linejoin="round" stroke-miterlimit="10" cx="359.5" cy="119" rx="12.4" ry="9.7"/>
<path fill="#FFFFFF" stroke="#173055" stroke-width="2" stroke-linecap="round" stroke-linejoin="round" stroke-miterlimit="10" d="
	M342.2,152.9l-1.2,2.8c0,0-1.5,3.4,1.3,4.8c2.5,1.2,4-0.9,4-0.9"/>
<line fill="none" stroke="#173055" stroke-width="2" stroke-linecap="round" stroke-linejoin="round" stroke-miterlimit="10" x1="300.2" y1="245.4" x2="300.2" y2="219.9"/>
<line fill="none" stroke="#173055" stroke-width="2" stroke-linecap="round" stroke-linejoin="round" stroke-miterlimit="10" x1="390.4" y1="245.4" x2="390.4" y2="219.9"/>
</svg>
