<svg id="Laag_1" data-name="Laag 1" xmlns="http://www.w3.org/2000/svg" viewBox="0 0 275.65 104.69"><defs><style>.cls-1{fill:#1b1464;}</style></defs><title>LogoBlueSVG</title><path class="cls-1" d="M55.15,22.66V57.15H55a8.51,8.51,0,0,0-2.27-2.34A21.5,21.5,0,0,0,39,49.94H38.9a26.08,26.08,0,0,0-16.4,5.79,36.7,36.7,0,0,0-2.93,2.7,28.8,28.8,0,0,0-5.46,8.78A28,28,0,0,0,15.6,90.89a28.85,28.85,0,0,0,3.09,4.59A30.14,30.14,0,0,0,22.17,99,28.67,28.67,0,0,0,25,101.05a25.64,25.64,0,0,0,13.64,4.14h.72a28.47,28.47,0,0,0,7.12-1.27,19.73,19.73,0,0,0,3.75-1.76,26.66,26.66,0,0,0,3-2.18,11.8,11.8,0,0,1,1.88-1.85v5.62H65.72V27.41Zm0,55a17,17,0,0,1-3.32,10A21.11,21.11,0,0,1,49.75,90l-1,.88a18.31,18.31,0,0,1-3,1.93A16,16,0,0,1,39,94.32a15.67,15.67,0,0,1-11.7-5.19,18.3,18.3,0,0,1-2.78-4.25A17.42,17.42,0,0,1,23,77.59v-.22a17.24,17.24,0,0,1,4.1-11.27A15.68,15.68,0,0,1,39.2,60.58a16.07,16.07,0,0,1,6.89,1.77,15,15,0,0,1,3.31,2.32,21.39,21.39,0,0,1,2,2,16.8,16.8,0,0,1,3.76,10.66Z" transform="translate(-12.17 -22.66)"/><path class="cls-1" d="M100.75,49.94h1.6q8.07,0,15.52,6.45a27.22,27.22,0,0,1,4.93,6.18,29.82,29.82,0,0,1,3.93,14.91v1.65c0,1,.12,1.56,0,1.56H87.17c.84,3.84,2.24,6.88,4.19,8.83q4.47,4.8,10.16,4.8,7.19,0,12-7.24a8.45,8.45,0,0,1,1.1-1.87q9.51,4.31,9.61,4.41a32.5,32.5,0,0,1-3.48,5.91c-5.41,6.37-11.8,9.66-19.16,9.66h-.22c-7.58,0-14.07-3.48-19.52-10.21a29.47,29.47,0,0,1-5.6-17.39v-.22a28.32,28.32,0,0,1,9.85-21.86C91,51.79,95.85,49.94,100.75,49.94ZM88.16,70.6h26.56v0c-.48-1.87-2-4-4.2-6.4a13.66,13.66,0,0,0-9.11-3.59c-5,0-9.16,2.65-12.39,8Z" transform="translate(-12.17 -22.66)"/><path class="cls-1" d="M167.08,61.47H151.71v42.12l.12.16H141.14V61.47H131l0-.12V50.81l0,.09h10.13v-.37c0-9.61,2.69-16.93,8-22a20,20,0,0,1,6.1-3.91A22.42,22.42,0,0,1,163.7,23h3.15l.23-.18V33.47l-.23.14h-2.76a10.61,10.61,0,0,0-10.28,6.58c-1.28,2.73-1.85,6.24-1.85,10.58l15.12,0Z" transform="translate(-12.17 -22.66)"/><path class="cls-1" d="M177.65,50.9V23H188l.2-.18v28h13.55l-.1-.15v10.6l.1.12H188.22V88.08c0,2.06.63,3.44,2,4.14a6,6,0,0,0,2.94.77,19.78,19.78,0,0,0,6.11-1.43l.44-.22,4,10a41.35,41.35,0,0,1-4.31,1.48,26.33,26.33,0,0,1-6.19.94h-.11a16.9,16.9,0,0,1-9.83-3.26,21.06,21.06,0,0,1-2-1.79l-.94-1.22A11.08,11.08,0,0,1,179,95.21a16.33,16.33,0,0,1-1.38-6.75v-27m-8.13-.12" transform="translate(-12.17 -22.66)"/><path class="cls-1" d="M218.79,23h.45a7,7,0,0,1,4.68,1.76,6.79,6.79,0,0,1,2.25,4.8v.33a6.73,6.73,0,0,1-2,4.52,7,7,0,0,1-5,2h-.33a6.58,6.58,0,0,1-4.64-1.82,6.49,6.49,0,0,1-1.45-2.09,6.05,6.05,0,0,1-.52-2.59v-.44a6.77,6.77,0,0,1,1.95-4.75l.78-.61A6.76,6.76,0,0,1,218.79,23Zm5.46,27.86v52.69l.07.16H213.71l0-.16V50.9Z" transform="translate(-12.17 -22.66)"/><path class="cls-1" d="M276.61,98.62l.48-.6v24.53l10.57,4.79V51l.17-.13H277.09v5.87a8.47,8.47,0,0,0-2.42-2.38,24,24,0,0,0-2.83-1.93A17.33,17.33,0,0,0,268.43,51a42.43,42.43,0,0,0-4.41-.94c-.66,0-1.45-.08-2.37-.11a26.74,26.74,0,0,0-14.36,3.92,25.93,25.93,0,0,0-4.14,3.2,28.47,28.47,0,0,0-2.59,2.82c-.88,1.14-1.68,2.26-2.38,3.36a28.59,28.59,0,0,0-3.75,14.31,28,28,0,0,0,5.63,16.84,32.7,32.7,0,0,0,2.87,3.31l1,.83A26.24,26.24,0,0,0,261.21,105a21.25,21.25,0,0,0,12.56-4A25.37,25.37,0,0,0,276.61,98.62Zm-6.4-7.17a25.52,25.52,0,0,1-2.32,1.31,15.66,15.66,0,0,1-6.24,1.38h-.71a14.94,14.94,0,0,1-9.28-3.2,15.81,15.81,0,0,1-5.8-8.36,17.39,17.39,0,0,1,3.37-16.38,20.09,20.09,0,0,1,2.15-2.15,15.5,15.5,0,0,1,9.78-3.54h.44a16.07,16.07,0,0,1,6.4,1.61,15.79,15.79,0,0,1,3.81,2.68,15.16,15.16,0,0,1,2.43,2.83,24.47,24.47,0,0,1,1.33,2.27c.33.7.63,1.63,1,2.77a18.9,18.9,0,0,1,.48,3.76v2.21a17.26,17.26,0,0,1-.76,4.47,25.73,25.73,0,0,1-1.4,3.26,32.45,32.45,0,0,1-2.36,3A16.16,16.16,0,0,1,270.21,91.45Z" transform="translate(-12.17 -22.66)"/></svg>